<?xml version="1.0" encoding="UTF-8"?>
<svg xmlns="http://www.w3.org/2000/svg" version="1.1" viewBox="0 0 512 512">
  <defs>
    <style>
      .cls-1 {
        fill: #987048;
      }
    </style>
  </defs>
  <!-- Generator: Adobe Illustrator 28.7.4, SVG Export Plug-In . SVG Version: 1.2.0 Build 166)  -->
  <g>
    <g id="Layer_1">
      <g>
        <path class="cls-1" d="M462,77.7c-1.3.3-27.9,10.3-59,22.3s-125.6,48.4-210,81c-84.4,32.5-156.1,60.6-159.4,62.3-7,3.7-14.2,10.5-16.2,15.2-4.2,10.1.9,20.6,12.8,26.3,2.4,1.2,27.7,9.4,56.3,18.3s52.3,16.5,52.7,16.8c.4.4,8.9,27.4,18.9,60.1,9.9,32.7,18.7,61.5,19.5,64,3.5,11.4,7.8,14.4,20.4,14.5,13,0,16.3-1.9,36.7-21.5,9.2-8.9,17.4-17.5,18.2-19,2.8-5.6-3.1-12.3-9.1-10.5-1.3.4-9.6,7.9-18.4,16.6-8.9,8.6-17.6,16.5-19.3,17.4-2,1-5,1.5-7.9,1.3l-4.7-.3-18.7-61.5c-10.3-33.8-18.8-62.2-18.8-63.1s19.4-13.8,53.8-35.4c29.5-18.6,54.9-35.1,56.5-36.7s2.7-4,2.7-5.4c0-3.4-4.2-7.4-7.7-7.4s-19.3,10.4-59.1,35.5c-30.9,19.5-56.7,35.5-57.4,35.5-2.3,0-104.2-32.1-107.9-34.1-2.1-1-4-2.3-4.4-2.9-1-1.7,1.3-4.7,6.2-7.8,5.5-3.5-1.4-.8,196.3-77,82.8-32,168-64.8,189.5-73.1,42.6-16.5,45.8-17.3,50.8-12.7,2.6,2.5,4.7,8.1,4.7,13s-69.9,333.9-72.7,343.9c-1,3.7-2.8,7.2-4.8,9.3-2.7,2.9-3.9,3.4-7.7,3.4s-5.9-.5-7.7-1.1-27.7-19.2-57.6-41.3c-29.9-22-66.9-49.3-82.3-60.6-15.5-11.3-28.1-20.8-28.1-21.2-.1-.4,44.7-41.1,99.4-90.3q99.4-89.6,99.5-93.5c0-3-.6-4.3-2.6-5.9-3.4-2.7-6.4-2.7-10,.1-10.5,8.3-206.1,185.4-206.8,187.4-2.1,5.2-.4,6.8,34.1,32.4,18.2,13.5,57.1,42.3,86.5,64,29.3,21.7,55.8,40.7,58.8,42.2,19.6,9.9,37.9,2.3,44.3-18.3.9-3,17.9-81.9,37.8-175.4,33.1-155.8,36-170.6,35.7-177.5-.7-12.7-6.9-22.9-16.4-27.1-4.3-2-13.3-3.1-17.4-2.2Z"/>
        <path class="cls-1" d="M284.3,217.2c-5.5,2.7-5,11.4.8,13.8,8.9,3.7,15.1-9.9,6.3-13.9-3-1.3-4.2-1.3-7.1.1Z"/>
      </g>
    </g>
  </g>
</svg>