<?xml version="1.0" encoding="UTF-8"?>
<svg xmlns="http://www.w3.org/2000/svg" version="1.1" viewBox="0 0 512 512">
  <defs>
    <style>
      .cls-1 {
        fill: #987048;
      }
    </style>
  </defs>
  <!-- Generator: Adobe Illustrator 28.7.4, SVG Export Plug-In . SVG Version: 1.2.0 Build 166)  -->
  <g>
    <g id="Layer_1">
      <g>
        <path class="cls-1" d="M239,16.6c-1.9.2-7.8.9-13,1.5-30.3,3.4-76.8,19.3-79.5,27.2-1.2,3.5.9,7.6,4.8,9.5,2.4,1.2,3.7.8,13.9-3.6,28.1-12.2,53-17.9,82.8-18.9,88.6-3.1,169.9,45.6,209,125.2,54.5,110.9,8.7,244.7-102.5,299.5-52.6,25.9-112.8,30.1-169,11.6-14.7-4.9-36.1-14.9-47-22-3.8-2.5-8.1-4.6-9.5-4.6s-19.1,5.4-39.5,11.9c-20.3,6.5-37.1,11.7-37.2,11.6-.2-.1,5.1-16.3,11.7-36.1,6.6-19.7,12-36.7,12-37.8s-3-6.5-6.7-12c-43.3-64.7-49.2-149.7-15.4-220.1,10.4-21.6,23-40,39.7-57.6,6.8-7.1,8.4-9.4,8.4-11.9,0-4.2-3.9-8-8.1-8s-4.4,1.2-10.7,7.7C47.5,126.8,25.1,173.5,17.9,226c-2,13.9-1.7,48.7.4,63,4.1,26.7,11.3,49.7,22.9,73,4.2,8.5,10.1,19.1,12.9,23.4l5.3,7.9-14.3,42.7c-12.4,37.4-14,43.1-13,45.3,1.1,2.4,4.6,4.7,7.3,4.7s20.3-6.1,43.6-13.5c23.2-7.4,42.9-13.5,43.7-13.5s4.9,2,9.1,4.4c26.2,15.2,56.3,25.6,86.7,30.2,16.4,2.5,50.4,2.5,66.5.1,26.4-4,48.7-11,72.5-22.7,25-12.3,44.3-26.1,63.8-45.5,18.7-18.6,32.4-37.6,44.8-62,17.7-35.1,25.3-67.4,25.3-107.5s-7.6-72.4-25.3-107.5c-12.3-24.3-25.9-43.1-44.8-62s-37.4-32.2-61.8-44.6c-23.3-11.7-48.1-19.6-73.5-23.4-10.1-1.5-43.8-2.8-51-1.9Z"/>
        <path class="cls-1" d="M116.3,57.2c-5.5,2.7-5,11.4.8,13.8,8.9,3.7,15.1-9.9,6.3-13.9-3-1.3-4.2-1.3-7.1.1Z"/>
        <path class="cls-1" d="M155.4,121.4c-10.7,2.5-16.5,6.3-25.6,17.1-6.6,7.7-13.7,21.4-16.5,31.5-1.3,5-1.7,10.2-1.7,22.5s.3,16.8,2.8,25c5.6,18.3,12.5,31.6,27,52.3,28.6,40.7,61.4,72,96.7,92.2,23.2,13.4,64.5,27.4,86.4,29.5,13.7,1.3,31.8-3.5,47.3-12.7,8.2-4.9,19.4-16.2,22.4-22.8,4.4-9.7,6.3-18.6,6.3-30.2s-.3-11-2-13.5c-2.3-3-18.7-11.9-46.5-25-14.4-6.7-17.4-7.8-23.2-8.1-9.7-.6-13.7,2-22.7,14.6-3.9,5.4-8.9,12-11.2,14.6-5.3,6-5.7,6-24.4-3.4-27.7-13.8-51.5-35.6-69.3-63.4-3.7-5.7-4.8-8.4-4.2-9.5.4-.9,4.3-5.4,8.5-10.1,10.4-11.4,13.5-16.9,13.5-24s-1.6-9.4-12.5-35.5c-6.9-16.5-13.7-31.8-15.2-33.9-1.6-2.2-4.4-4.7-6.3-5.7-4.9-2.6-21.4-3.4-29.6-1.5ZM177.9,137.7c1.2,1.1,7.2,14.2,14.2,31.1l12.1,29.4-2.5,3.6c-1.3,2-5.8,7.5-10,12.1-14.4,15.8-14.6,20.5-1.5,39.9,21.5,31.9,50.2,56.3,81.9,69.7,8.6,3.6,11.8,4.5,16.6,4.5,9.4,0,13.2-2.6,23.1-15.6q14.1-18.6,17.1-17.9c1.4.4,14.6,6.4,29.3,13.3l26.7,12.7v6c.1,7.2-2,16-5.5,23.3-6.3,13-31.2,26.1-49.5,26.2-21.6,0-70.5-17.9-97-35.6-28-18.8-54.9-46.1-78.4-79.4-20.1-28.7-27.5-47.2-27.5-68.9s5.1-32.7,17.2-45.7c8.1-8.6,11.8-10.2,23.9-10.3,5.9-.1,8.2.3,9.8,1.6Z"/>
      </g>
    </g>
  </g>
</svg>